<svg id="Layer_1" data-name="Layer 1" xmlns="http://www.w3.org/2000/svg" viewBox="0 0 47.08397 46.87327"><defs><style>.cls-1,.cls-2{fill:none;stroke:#616161;}.cls-1{stroke-miterlimit:10;stroke-width:2px;}.cls-2{stroke-linecap:round;stroke-linejoin:round;stroke-width:3px;}</style></defs><title>play</title><path class="cls-1" d="M183.02937,157.5a22.06889,22.06889,0,0,1-1.03184,4.90828,22.44051,22.44051,0,0,1-1.19416,4.87015,22.30927,22.30927,0,0,1-3.091,3.94841c-1.05111,1.31624-1.84183,2.84714-3.15816,3.89816a22.36763,22.36763,0,0,1-8.96956,4.65242,23.26947,23.26947,0,0,1-5.08468.41941c-1.72167,0-3.32613-.70706-4.93694-1.07327-1.663-.37807-3.44454-.382-4.94489-1.10588a22.777,22.777,0,0,1-4.01149-3.0968,23.95957,23.95957,0,0,1-8.084-12.4044,22.6428,22.6428,0,0,1-.49453-5.01648,22.15687,22.15687,0,0,1,.79621-4.94878,22.46728,22.46728,0,0,1,1.32632-4.85183,22.42212,22.42212,0,0,1,2.95719-4.06978,20.15421,20.15421,0,0,1,12.40224-7.99013,22.4976,22.4976,0,0,1,4.98992-.22832,22.8484,22.8484,0,0,1,5.01787.10927,22.01867,22.01867,0,0,1,4.54351,2.126,22.51381,22.51381,0,0,1,4.49052,2.23407,24.80021,24.80021,0,0,1,8.36041,12.5041A23.744,23.744,0,0,1,183.02937,157.5Z" transform="translate(-137.02812 -134.32356)"/><polyline class="cls-2" points="16.142 15.591 18.384 14.297 16.722 19.395 21.102 16.866 17.446 22.127 23.987 18.351 16.793 25.943 27.4 19.819 16.453 28.595 29.665 20.967 17.38 31.04 31.208 23.056"/></svg>