<svg id="Layer_1" data-name="Layer 1" xmlns="http://www.w3.org/2000/svg" viewBox="0 0 84.99376 84.62486"><defs><style>.cls-1{fill:none;stroke:#bdbdbd;stroke-miterlimit:10;stroke-width:2px;}</style></defs><title>artifact_placeholder</title><path class="cls-1" d="M202.17217,148.17187c-1.68269,1.68564-2.55394-.55965-4.93571-.55965-2.38118,0-2.38118.657-4.76235.657-2.38185,0-2.38185-.35313-4.7637-.35313-2.38222,0-2.38222.22907-4.76444.22907-2.38186,0-2.38186.16578-4.76372.16578-2.37953,0-2.37953-.49626-4.75905-.49626-2.38178,0-2.38178.35859-4.76356.35859-2.38033,0-2.38033-.57381-4.76066-.57381-2.38151,0-2.38151.64095-4.763.64095-2.38254,0-2.38254.06686-4.76509.06687s-2.38254-.203-4.76508-.203-2.38258.31144-4.76517.31144c-2.3819,0-2.3819-.7958-4.7638-.7958-2.38223,0-2.38223.84045-4.76446.84045-2.3843,0-2.3843-.884-4.7686-.884-2.38594,0-2.38594.63463-4.77188.63463s-2.78468,1.17561-4.47327-.51c-1.68564-1.68269-.29972-2.08264-.29972-4.46441,0-2.38118-.45146-2.38118-.45146-4.76235,0-2.38185.63716-2.38185.63716-4.7637,0-2.38222-.46-2.38222-.46-4.76444,0-2.38186.72533-2.38186.72533-4.76372,0-2.37953-.29347-2.37953-.29347-4.75905,0-2.38178-.53947-2.38178-.53947-4.76356,0-2.38033.49293-2.38033.49293-4.76066,0-2.38151.35716-2.38151.35716-4.763,0-2.38254-.445-2.38254-.445-4.76509s-.00989-2.38254-.00989-4.76508.38777-2.38258.38777-4.76517c0-2.3819-.55742-2.3819-.55742-4.7638,0-2.38223.0589-2.38223.0589-4.76446,0-2.3843.1099-2.3843.1099-4.7686,0-2.38594-.25248-2.38594-.25248-4.77188s-1.4343-3.07308.25134-4.76167c1.68269-1.68564,2.37154-.30055,4.75331-.30055,2.38118,0,2.38118.348,4.76235.348,2.38185,0,2.38185.15846,4.7637.15846,2.38222,0,2.38222-.34926,4.76444-.34926,2.38186,0,2.38186.48723,4.76372.48723,2.37953,0,2.37953-.70113,4.75905-.70113,2.38178,0,2.38178.05786,4.76356.05786,2.38033,0,2.38033.66192,4.76066.66192,2.38151,0,2.38151-.04813,4.763-.04813,2.38254,0,2.38254-.32118,4.76509-.32118s2.38254-.50181,4.76508-.50181,2.38258.54512,4.76517.54512c2.3819,0,2.3819-.41316,4.7638-.41316,2.38223,0,2.38223.13855,4.76446.13855,2.3843,0,2.3843.51268,4.7686.51268,2.38594,0,2.38594-.60722,4.77188-.60722s2.94279-1.22245,4.63138.46319c1.68564,1.68269-.01754,2.241-.01754,4.62279,0,2.38118.29221,2.38118.29221,4.76235,0,2.38185-.44257,2.38185-.44257,4.7637,0,2.38222.04425,2.38222.04425,4.76444,0,2.38186.24411,2.38186.24411,4.76372,0,2.37953.293,2.37953.293,4.75905,0,2.38178-.20685,2.38178-.20685,4.76356,0,2.38033-.01618,2.38033-.01618,4.76066,0,2.38151-.3144,2.38151-.3144,4.763,0,2.38254-.071,2.38254-.071,4.76509s.45271,2.38254.45271,4.76508.35279,2.38258.35279,4.76517c0,2.3819-.68486,2.3819-.68487,4.7638,0,2.38223.67977,2.38223.67977,4.76446,0,2.3843-.82012,2.3843-.82012,4.7686,0,2.38594.2808,2.34009.8188,4.66458C203.05951,145.69556,203.85781,146.48328,202.17217,148.17187Z" transform="translate(-119.18984 -65.17431)"/><path class="cls-1" d="M121.34229,66.65771c1.68642,1.68642,1.49155,1.88129,3.178,3.5677,1.68708,1.68709,1.48851,1.88567,3.17559,3.57275,1.68631,1.68631,1.94028,1.43234,3.62659,3.11865,1.68714,1.68713,1.35971,2.01456,3.04684,3.7017,1.68667,1.68667,1.7417,1.63164,3.42838,3.31832,1.687,1.687,1.66992,1.7041,3.35693,3.39111s1.89361,1.48018,3.58051,3.16708c1.68417,1.68417,1.45687,1.91147,3.141,3.59565,1.68534,1.68533,1.44927,1.92139,3.13461,3.60673,1.68725,1.68725,2.00407,1.37044,3.69132,3.05769,1.68538,1.68538,1.78126,1.5895,3.46664,3.27488,1.68735,1.68736,1.47887,1.89584,3.16622,3.58319,1.68641,1.68641,2.16276,1.21005,3.84917,2.89646,1.688,1.688,1.68835,1.68766,3.37635,3.37566,1.687,1.687,1.51809,1.85586,3.20507,3.54284,1.68781,1.68781,1.78777,1.58786,3.47559,3.27567,1.68854,1.68855,1.17285,2.20424,2.8614,3.89279s1.96787,1.40921,3.65641,3.09776c1.68659,1.68658,1.969,1.40419,3.65557,3.09077,1.68848,1.68849,1.37931,1.99766,3.0678,3.68615,1.68872,1.68872,1.61992,1.75752,3.30864,3.44624,1.68915,1.68915,1.68572,1.69258,3.37487,3.38173,1.69187,1.69187,1.47186,1.91188,3.16374,3.60375s1.92387,1.45986,3.61574,3.15174" transform="translate(-119.18984 -65.17431)"/><path class="cls-1" d="M201.79936,66.79936c-1.68642,1.68642-1.15316,2.21968-2.83957,3.9061-1.68709,1.68708-1.92181,1.45236-3.6089,3.13944-1.68631,1.68631-1.80608,1.56654-3.49239,3.25285-1.68713,1.68714-1.69155,1.68271-3.37869,3.36985-1.68667,1.68667-1.61857,1.75478-3.30524,3.44145-1.687,1.687-1.81026,1.56377-3.49727,3.25078s-1.44615,1.92764-3.133,3.61454c-1.68417,1.68418-1.66052,1.70783-3.34469,3.392-1.68533,1.68533-1.75778,1.61289-3.44311,3.29822-1.68726,1.68726-1.91279,1.46173-3.6,3.149-1.68538,1.68538-1.71249,1.65828-3.39787,3.34366-1.68735,1.68735-1.62028,1.75442-3.30763,3.44177-1.68641,1.68641-1.43891,1.93391-3.12531,3.62032-1.688,1.688-1.51267,1.86333-3.20067,3.55134-1.687,1.687-1.75017,1.62379-3.43714,3.31077-1.68782,1.68781-2.2924,1.08323-3.98021,2.771-1.68855,1.68855-1.34945,2.02766-3.038,3.7162s-1.419,1.9581-3.10754,3.64664c-1.68658,1.68659-1.72881,1.64436-3.4154,3.33094-1.68848,1.68849-1.87877,1.4982-3.56726,3.18668-1.68872,1.68873-1.67012,1.70733-3.35884,3.39605-1.68915,1.68915-1.69852,1.67978-3.38767,3.36893-1.69187,1.69187-2.02478,1.359-3.71665,3.05083s-1.10753,2.27621-2.79941,3.96808" transform="translate(-119.18984 -65.17431)"/></svg>