<svg id="Layer_1" data-name="Layer 1" xmlns="http://www.w3.org/2000/svg" viewBox="0 0 29.56028 64.76587"><defs><style>.cls-1{fill:none;stroke:#bdbdbd;stroke-linecap:round;stroke-linejoin:round;}</style></defs><title>gear_button_right</title><polyline class="cls-1" points="9.858 23.889 27.932 13.454 10.92 24.806 29.06 14.332 13.127 24.925 27.478 16.639 13.5 26.425 27.811 18.162 13.66 27.972 27.731 19.848 15.134 28.288 27.606 21.088 16.853 29.352 28.251 22.772 17.059 30.844 28.887 24.016 17.548 31.888 28.823 25.379 19.502 32.17 27.387 27.618 15.933 36.075 28.037 29.087 10.736 40.97 28.027 30.987"/><polyline class="cls-1" points="1.592 1.115 2.45 0.62 1.489 2.459 3.392 1.36 1.569 3.725 6.898 0.648 1.609 5.189 8.387 1.276 0.787 7.658 12.969 0.624 1.243 9.125 14.573 1.429 1.685 10.743 19.197 0.633 0.778 12.611 21.755 0.5 0.639 14.924 24.433 1.186 1.716 16.305 28.529 0.825 1.022 18.605 28.104 2.969 1.749 20.486 28.246 5.188 1.641 22.779 28.372 7.346 0.861 25.462 28.516 9.495 0.822 26.943 27.75 11.396 1.03 29.09 10.253 23.765 0.872 30.496 10.473 24.953 1.43 32.078 10.336 26.936 1.432 33.643 10.619 28.338 2.205 35.397 9.995 30.9 1.138 37.675 10.401 32.327 1.623 39.343 10.76 34.067 0.762 41.157 9.706 35.993 2.134 41.809 9.824 37.369 1.416 44.229 10.004 39.271 0.546 46.41 11.089 40.323 1.802 47.862 28.533 32.428 0.736 50.124 27.85 34.47 0.5 51.579 28.946 35.155 1.194 53.485 28.236 37.873 1.735 55.004 28.354 39.635 1.087 57.21 27.794 41.791 1.54 58.488 28.417 42.97 1.505 60.127 27.814 44.937 1.907 62.076 27.914 47.061 2.046 63.244 27.585 48.499 2.658 64.178 28.497 49.26 6.385 63.963 28.393 51.256 8.074 64.202 28.76 52.259 12.484 63.464 27.919 54.552 14.658 64.19 28.121 56.417 18.839 63.882 28.914 58.065 20.574 64.266 27.874 60.051 23.182 64.115 28.27 61.177 28.022 63.444 28.682 63.063"/></svg>