<svg id="Layer_5" data-name="Layer 5" xmlns="http://www.w3.org/2000/svg" viewBox="0 0 29.56287 64.76584"><defs><style>.cls-1{fill:none;stroke:#bdbdbd;stroke-linecap:round;stroke-linejoin:round;}</style></defs><title>button</title><polyline class="cls-1" points="18.735 23.995 27.935 18.683 18.824 25.473 29.063 19.561 20.145 26.103 27.481 21.868 19.429 28.232 27.814 23.391 18.547 30.381 27.734 25.077 19.279 31.126 27.609 26.317 19.691 32.945 28.254 28.001 18.873 35.028 28.89 29.245 18.519 36.558 28.826 30.608 19.577 37.358 27.39 32.847 19.998 38.959 28.041 34.316 19.187 41.356 28.03 36.25"/><polyline class="cls-1" points="1.592 1.115 2.45 0.62 1.489 2.459 3.392 1.36 1.569 3.725 6.898 0.648 1.609 5.189 8.387 1.276 0.787 7.658 12.969 0.624 1.243 9.125 14.573 1.429 1.685 10.743 19.197 0.633 0.778 12.611 21.755 0.5 0.639 14.924 24.433 1.186 1.716 16.305 28.529 0.825 1.022 18.605 28.103 2.97 1.749 20.486 28.245 5.189 1.641 22.779 28.369 7.347 0.861 25.462 28.512 9.497 0.822 26.943 27.746 11.399 1.03 29.09 28.27 13.363 0.872 30.496 28.492 14.55 1.43 32.078 28.357 16.532 1.432 33.643 19.653 23.123 2.205 35.397 13.935 28.625 1.138 37.675 10.494 32.274 1.623 39.343 11.992 33.356 0.762 41.157 11.773 34.8 2.134 41.809 12.807 35.647 1.416 44.229 14.258 36.815 0.546 46.41 16.407 37.253 1.802 47.862 17.205 38.969 0.736 50.124 17.563 40.409 0.5 51.579 19.495 40.612 1.194 53.485 28.234 37.874 1.735 55.004 28.352 39.636 1.087 57.21 27.793 41.792 1.54 58.488 28.416 42.971 1.505 60.127 27.812 44.938 1.907 62.076 27.913 47.062 2.046 63.244 27.584 48.5 2.658 64.178 28.496 49.261 6.385 63.963 28.392 51.257 8.074 64.202 28.759 52.26 12.484 63.464 27.918 54.553 14.658 64.19 28.12 56.417 18.839 63.882 28.914 58.065 20.574 64.266 27.873 60.052 23.182 64.115 28.27 61.177 28.022 63.444 28.682 63.063"/></svg>