<svg id="Layer_1" data-name="Layer 1" xmlns="http://www.w3.org/2000/svg" viewBox="0 0 66.75632 66.56638"><defs><style>.cls-1,.cls-2{fill:none;stroke:#bdbdbd;}.cls-1{stroke-miterlimit:10;stroke-width:2px;}.cls-2{stroke-width:3px;}</style></defs><title>gear_placeholder</title><path class="cls-1" d="M193.00552,138.96156c-1.71142,1.71436-2.42791-.095-4.8503-.095-2.42,0-2.42-.00485-4.84-.00485-2.42231,0-2.42231-.31114-4.84461-.31114-2.42083,0-2.42083.3281-4.84167.3281-2.422,0-2.422.32066-4.84406.32066-2.42309,0-2.42309-.63106-4.84617-.63106s-2.42308.657-4.84616.657-2.42313-.35313-4.84625-.35313c-2.42243,0-2.42243.22908-4.84486.22908-2.42276,0-2.42276.16577-4.84553.16577-2.42487,0-2.42487-.49626-4.84974-.49626-2.42654,0-2.42654.35859-4.85307.35859s-2.85279,1.25763-4.57008-.45672c-1.71435-1.71142-.52338-2.1389-.52338-4.56129,0-2.42-.06686-2.42-.06687-4.84,0-2.4223.203-2.4223.203-4.84461,0-2.42083-.31144-2.42083-.31144-4.84166,0-2.422.7958-2.422.7958-4.84407,0-2.42308-.84045-2.42308-.84045-4.84617s.884-2.42308.884-4.84616-.63463-2.42312-.63463-4.84625c0-2.42242.63357-2.42242.63357-4.84485,0-2.42277-.42378-2.42277-.42378-4.84553,0-2.42487-.45146-2.42487-.45146-4.84974,0-2.42654.63716-2.42654.63716-4.85308s-2.09386-3.33037-.3795-5.04766c1.71142-1.71435,2.6173.6445,5.03969.6445,2.42,0,2.42-.29346,4.84-.29346,2.42231,0,2.42231-.53948,4.84461-.53948,2.42083,0,2.42083.49294,4.84167.49294,2.422,0,2.422.35716,4.84406.35716,2.42309,0,2.42309-.445,4.84617-.445s2.42308-.00989,4.84616-.00989,2.42313.38777,4.84625.38777c2.42243,0,2.42243-.55743,4.84486-.55743,2.42276,0,2.42276.05891,4.84553.05891,2.42487,0,2.42487.10989,4.84974.10989,2.42654,0,2.42654-.25248,4.85307-.25248s3.12558-1.463,4.84287.25134c1.71435,1.71142.30055,2.41216.30055,4.83455,0,2.42-.348,2.42-.348,4.84,0,2.4223-.15846,2.4223-.15846,4.84461,0,2.42083.34926,2.42083.34926,4.84166,0,2.422-.48723,2.422-.48723,4.84407,0,2.42308.70113,2.42308.70113,4.84617s-.05786,2.42308-.05786,4.84616-.66192,2.42312-.66192,4.84624c0,2.42243.04813,2.42243.04813,4.84486,0,2.42277.32118,2.42277.32118,4.84553,0,2.42487.50181,2.42487.50181,4.84974,0,2.42654-1.05443,2.49064-.54407,4.8629C193.5,136.649,194.71987,137.24427,193.00552,138.96156Z" transform="translate(-128.13046 -74.13324)"/><path class="cls-2" d="M172.062,104.06348c0,.16406.75414.43945.75414.82617s-.34434.80993-.36729,1.25525c-.02344.44531-.2165.84635-.23945,1.22135a2.13227,2.13227,0,0,1-.14253.75779,3.61587,3.61587,0,0,1-1.32548,1.42179,5.5294,5.5294,0,0,1-1.8653.59259c-.30468.07031-.56823.45438-.87243.47782-.30469.02344-.62078.08039-.94891.10383-.70312.04687-1.422-.01415-2.13688.021-.71533.03516-1.54473-.1967-2.24785-.14983-.07032.70313-.19323,1.5113-.19323,2.191a5.30891,5.30891,0,0,0,.23845,1.0972,11.77777,11.77777,0,0,0,.43573,1.25552c-3.40337.22612-4.18618,2.1-7.09365.31654-1.843-1.13051-.14532-2.58137-.14532-4.74348s.51691-2.11823.84962-4.25459c.05146-.33046-.11066-.08634.22286-.06145.11718.02343.3485-.35179.7235-.36351.37451-.01172.81306.03619,1.30525.02447s1.01217.23979,1.55172.21635c.53906-.02343,1.042-.08447,1.52247-.13135.48-.04687.89156-.0856,1.24312-.1442s.82746.25051.92121.15676c.39844-.30468-.013-1.07948.10465-1.48964a3.94481,3.94481,0,0,0,.12246-1.195c0-1.52344-.08794-2.54481-.94341-3.36512a4.675,4.675,0,0,0-3.38893-1.45332c-.53955,0-1.11984.45454-1.89328.66547s-1.7.02048-2.50854.31345-1.5673.67905-2.3173,1.00717c-.75048.32813-1.20135.62866-1.64617.8396-.188-1.35937-.63967-2.63928-.80325-3.99866-.16406-1.35937-.05463-2.61829-.2182-3.95422,1.59375-.04688,3.09058.28251,4.67261.23564s3.16726-.51814,4.78445-.51814c.35156,0,.93164-.1356,1.74023-.1356s1.6564.31227,2.55875.34743c.90185.03515,1.7946-.5902,2.59147-.53161a10.63841,10.63841,0,0,1,1.78963.24686,7.16865,7.16865,0,0,1,1.79781,1.19719,4.5521,4.5521,0,0,1,1.47128,1.56769c.09327.21094-.51966.87737-.44935,1.62737s.51651,1.52414.55167,2.39133.46367,1.68812.4871,2.485C172.77834,103.23022,172.062,103.78223,172.062,104.06348ZM162.851,118.5127c0,.42187.54235,1.087.28454,1.462-.2583.375-.88191.55693-1.26863.86162a5.14779,5.14779,0,0,1-1.32776.58329,3.17014,3.17014,0,0,1-1.20128.25515,3.42081,3.42081,0,0,1-1.12612-.10008,4.00486,4.00486,0,0,1-.96971-.67762c-.31641-.22266-.83588-.282-1.04681-.61016a2.46581,2.46581,0,0,1-.38564-1.21167,2.42249,2.42249,0,0,1,.53748-1.306c.269-.36328.81691-.44417,1.21584-.702a4.30379,4.30379,0,0,1,1.26573-.52286,4.94186,4.94186,0,0,1,1.24751-.281,3.91692,3.91692,0,0,1,1.85868.12013,3.39358,3.39358,0,0,1,1.50706,1.36319C163.53517,117.91073,162.851,118.30176,162.851,118.5127Z" transform="translate(-128.13046 -74.13324)"/></svg>