<svg id="Layer_1" data-name="Layer 1" xmlns="http://www.w3.org/2000/svg" viewBox="0 0 48.74388 55.01276"><defs><style>.cls-1{fill:none;stroke:#616161;stroke-miterlimit:10;stroke-width:2px;}</style></defs><title>spell_image_02</title><path class="cls-1" d="M511.51515,357.99432c-2.30248-.004-1.04685,2.06-2.19809,4.054-1.1514,1.99429-1.26207,1.9304-2.41347,3.92469-1.1517,1.9948-1.01972,2.071-2.17141,4.06579-1.15355,1.998-1.30423,1.911-2.45778,3.909s-3.5259,2.06429-2.37581,4.06429c1.14778,1.996,2.39615-.12044,4.69864-.12044,2.3028,0,2.3028.24361,4.60561.24361,2.30481,0,2.30481-.35056,4.60962-.35056,2.30639,0,2.30639.02893,4.61279.02893s3.61791,2.23372,4.774.238c1.15417-1.99232-1.17194-2.16857-2.32319-4.16259-1.1514-1.99429-1.29047-1.914-2.44188-3.90828-1.15169-1.9948-1.369-1.86934-2.52068-3.86414-1.15355-1.998-1.4291-1.91047-2.06885-4.1271C513.13727,359.53846,513.82225,357.99832,511.51515,357.99432Z" transform="translate(-486.98867 -356.99431)"/><path class="cls-1" d="M499.99262,377.7469c-2.30249-.004-1.15113,2.20562-2.30237,4.19964-1.15141,1.99429-.95592,2.10715-2.10732,4.10144-1.1517,1.9948-1.4276,1.8355-2.57929,3.8303-1.15356,1.998-.95437,2.113-2.10792,4.111s-3.77146,2.0393-2.62138,4.03931c1.14779,1.996,2.49751-.03392,4.8-.03392,2.3028,0,2.3028-.26974,4.60561-.26974,2.30481,0,2.30481.24647,4.60962.24647,2.30639,0,2.30639.17858,4.61279.17858s3.46622,1.76771,4.62235-.228c1.15417-1.99232-1.15552-2.00261-2.30676-3.99663-1.15141-1.99428-.9835-2.09123-2.1349-4.08552-1.1517-1.99479-1.39307-1.85544-2.54476-3.85023-1.15355-1.998-1.66155-1.80115-2.28636-4.022C501.53637,379.4241,502.29972,377.7509,499.99262,377.7469Z" transform="translate(-486.98867 -356.99431)"/><path class="cls-1" d="M523.0378,378.09283c-2.30248-.004-1.18736,1.83843-2.3386,3.83244-1.15141,1.99429-1.05221,2.05156-2.20362,4.04585-1.15169,1.9948-1.07991,2.03624-2.2316,4.031-1.15356,1.998-1.36844,1.874-2.522,3.872s-3.30183,1.99917-2.15175,3.99918c1.14779,1.996,2.2274.24346,4.52989.24346,2.30281,0,2.30281-.32047,4.60561-.32047,2.30481,0,2.30481-.03344,4.60962-.03344,2.30639,0,2.30639.10152,4.61279.10152s3.27683,1.94363,4.433-.05207c1.15417-1.99232-.80681-1.98488-1.958-3.97889-1.15141-1.99429-1.51533-1.78418-2.66673-3.77846-1.1517-1.9948-.7689-2.21581-1.9206-4.2106-1.15355-1.998-1.94142-1.64682-2.59176-3.86036C524.54225,379.59557,525.3449,378.09683,523.0378,378.09283Z" transform="translate(-486.98867 -356.99431)"/><path class="cls-1" d="M511.64257,412.00119c.0138-2.34618-.15025-2.34714-.13645-4.69332.01381-2.3478-.14651-2.34874-.1327-4.69653s.32933-2.34594.34314-4.69373" transform="translate(-486.98867 -356.99431)"/><path class="cls-1" d="M487.86426,370.72311c2.03749,1.16042,1.9293,1.35039,3.9668,2.51081,2.04078,1.1623,2.0167,1.20457,4.05748,2.36686s2.03958,1.16441,4.08036,2.3267" transform="translate(-486.98867 -356.99431)"/><path class="cls-1" d="M522.97778,377.85528c2.02371-1.18431,1.988-1.24532,4.01171-2.42963,2.027-1.18622,2.21115-.8715,4.23811-2.05772s1.92721-1.3567,3.95418-2.54292" transform="translate(-486.98867 -356.99431)"/></svg>