<svg id="Layer_1" data-name="Layer 1" xmlns="http://www.w3.org/2000/svg" viewBox="0 0 54 54"><defs><style>.cls-1{fill:none;stroke:#616161;stroke-miterlimit:10;stroke-width:2px;}</style></defs><title>spell_image_01</title><path class="cls-1" d="M188,157.06758c-2.25,0-2.25.31556-4.5.31556s-2.25-.22321-4.5-.22321" transform="translate(-134 -130)"/><path class="cls-1" d="M172.636,138.67061c2.38648,0,1.857,1.46139,3.54446,3.14889s3.10209,1.158,3.10209,3.54446-1.65263,1.61893-3.34013,3.30643-.91994,3.33721-3.30642,3.33721-1.57488-1.69376-3.26238-3.38126-3.51108-.87589-3.51108-3.26238,2.04385-1.40927,3.34716-3.40844C170.58974,139.83867,170.24955,138.67061,172.636,138.67061Z" transform="translate(-134 -130)"/><path class="cls-1" d="M161,150.18844c2.38649,0,1.82294,1.61362,3.51044,3.30112s3.13541,1.12395,3.13541,3.51044-1.50974,1.76111-3.19724,3.44861-1.06212,3.52067-3.44861,3.52067-1.70354-1.89074-3.391-3.57824-3.23816-1.00455-3.23816-3.391,1.949-1.37691,3.23636-3.38643C158.99486,151.44734,158.61351,150.18844,161,150.18844Z" transform="translate(-134 -130)"/><path class="cls-1" d="M149.364,138.47709c2.38649,0,1.814,1.69786,3.50151,3.38536s3.151,1.115,3.151,3.50151-1.64148,1.636-3.329,3.32351-.937,3.43214-3.32351,3.43214-1.74536-1.63529-3.43286-3.32279-3.33086-1.04637-3.33086-3.43286,2.16189-1.32713,3.43917-3.343C147.432,139.823,146.97748,138.47709,149.364,138.47709Z" transform="translate(-134 -130)"/><path class="cls-1" d="M149.364,161.72692c2.38649,0,1.57675,1.95737,3.26425,3.64487s3.2739.87776,3.2739,3.26425-1.59749,1.56565-3.285,3.25315-.86667,3.61092-3.25316,3.61092-1.58055-1.90852-3.268-3.596-3.51511-.88157-3.51511-3.268,1.99946-1.44209,3.2738-3.45986C147.24863,162.96889,146.97748,161.72692,149.364,161.72692Z" transform="translate(-134 -130)"/><path class="cls-1" d="M172.636,161.90869c2.38648,0,1.56186,1.79049,3.24936,3.478s3.42154.86287,3.42154,3.24936-1.63507,1.66083-3.32257,3.34833-.96185,3.46061-3.34833,3.46061-1.8217-1.61224-3.5092-3.29974-3.14512-1.12272-3.14512-3.5092,2.04538-1.33082,3.34405-3.333C170.708,163.172,170.24955,161.90869,172.636,161.90869Z" transform="translate(-134 -130)"/><path class="cls-1" d="M161.06745,130c0,2.25-.0132,2.25-.0132,4.5s.18629,2.25.18629,4.5" transform="translate(-134 -130)"/><path class="cls-1" d="M160.82889,184c0-2.25.34355-2.25.34355-4.5s-.29551-2.25-.29551-4.5" transform="translate(-134 -130)"/><path class="cls-1" d="M134,157.19681c2.25,0,2.25-.26812,4.5-.26812s2.25.23082,4.5.23082" transform="translate(-134 -130)"/></svg>