<svg id="Layer_1" data-name="Layer 1" xmlns="http://www.w3.org/2000/svg" viewBox="0 0 46.07811 52.77328"><defs><style>.cls-1{fill:none;stroke:#616161;stroke-miterlimit:10;stroke-width:2px;}</style></defs><title>spell_image_00</title><path class="cls-1" d="M167.8835,171.5c0,1.864-1.20628,3.2342-2.42779,4.45571A6.05043,6.05043,0,0,1,161,177.97846a6.46267,6.46267,0,0,1-4.73971-1.73875c-1.22151-1.22151-1.5106-2.87575-1.5106-4.73971a5.80723,5.80723,0,0,1,1.82977-4.42054C157.801,165.85795,159.136,164.725,161,164.725a6.80842,6.80842,0,0,1,4.81152,1.96349A6.90474,6.90474,0,0,1,167.8835,171.5Z" transform="translate(-137.97474 -131)"/><path class="cls-1" d="M161.35183,131c0,2.53516.05854,2.53516.05854,5.07032,0,2.53582-.03107,2.53582-.03107,5.07164,0,2.53444-.42622,2.53444-.42622,5.06888,0,2.53665-.17713,2.53665-.17713,5.0733,0,2.53839.11072,2.53839.11072,5.07678s-.12519,2.53838-.12519,5.07677" transform="translate(-137.97474 -131)"/><path class="cls-1" d="M170.144,167.28805c2.249-1.12449,2.26909-1.08425,4.51806-2.20874,2.25052-1.12525,1.91379-1.79872,4.1643-2.924s2.52874-.56882,4.77925-1.69408" transform="translate(-137.97474 -131)"/><path class="cls-1" d="M138.4882,160.2736c2.249,1.12448,2.26276,1.09691,4.51173,2.2214,2.25051,1.12526,2.23512,1.156,4.48563,2.2813s2.18279,1.26071,4.43331,2.386" transform="translate(-137.97474 -131)"/><path class="cls-1" d="M151.88941,175.77883c-2.249,1.12448-1.97169,1.679-4.22066,2.80353-2.25051,1.12525-2.44492.73644-4.69543,1.8617s-2.30085,1.02459-4.55137,2.14984" transform="translate(-137.97474 -131)"/><path class="cls-1" d="M183.43557,182.87885c-2.249-1.12448-2.38447-.85348-4.63344-1.978-2.25051-1.12525-1.83665-1.953-4.08717-3.07823s-2.47663-.673-4.72714-1.79829" transform="translate(-137.97474 -131)"/></svg>