<svg id="Layer_5" data-name="Layer 5" xmlns="http://www.w3.org/2000/svg" viewBox="0 0 28.9643 28.96177"><defs><style>.cls-1{fill:#eee;}.cls-2{fill:#616161;}.cls-3{fill:none;stroke:#e57373;stroke-miterlimit:10;stroke-width:3px;}</style></defs><title>sound_false</title><path class="cls-1" d="M388.4873,99.41162a1.69279,1.69279,0,0,1-1.24707-.65234c-.835-.8335-.72412-1.26856-.48144-2.22217a7.78294,7.78294,0,0,0,.30225-2.03467c0-1.12158.00634-1.68213.0122-2.24316.00635-.56348.0127-1.12647.0127-2.25342a7.041,7.041,0,0,1,.28174-2.12012,7.982,7.982,0,0,0,.31543-2.37695,7.29272,7.29272,0,0,0-.35254-2.39209,6.34782,6.34782,0,0,1-.312-2.10889,11.39935,11.39935,0,0,1,.17823-2.1709,12.45635,12.45635,0,0,0,.19092-2.333,7.24992,7.24992,0,0,0-.26124-1.89551c-.19726-.7959-.26367-1.064.57715-1.90576.62061-.62159.94043-.707,1.19385-.707a3.20658,3.20658,0,0,1,.7124.12548,7.28836,7.28836,0,0,0,1.8877.25782,16.19811,16.19811,0,0,0,2.30957-.14258,15.22467,15.22467,0,0,1,2.187-.13477,5.39157,5.39157,0,0,1,2.0835.36573,6.31445,6.31445,0,0,0,2.41357.42138,9.24508,9.24508,0,0,0,2.36084-.2666,8.27206,8.27206,0,0,1,2.14014-.24219,13.22364,13.22364,0,0,0,2.32763-.17822,12.27341,12.27341,0,0,1,2.17627-.1665,7.45226,7.45226,0,0,0,2.15284-.36475,4.22289,4.22289,0,0,1,1.08935-.22021,1.61473,1.61473,0,0,1,1.2041.60791c.80957.8081.66748,1.30224.38428,2.28613a7.41366,7.41366,0,0,0-.3667,2.15332c0,1.11377-.02344,1.67041-.04736,2.22754-.02393.56738-.04785,1.13428-.04785,2.269a9.12505,9.12505,0,0,1-.21973,2.14844,10.12882,10.12882,0,0,0-.23975,2.34863,12.94021,12.94021,0,0,0,.18262,2.32813,11.90824,11.90824,0,0,1,.1709,2.17285,4.5365,4.5365,0,0,1-.42578,1.94238,3.8848,3.8848,0,0,0-.24707,2.7832,8.52484,8.52484,0,0,0,.9082,2.18994c.52588.96094.68457,1.251-.07519,2.01124a1.10389,1.10389,0,0,1-.793.42334,2.725,2.725,0,0,1-1.12744-.44092,5.02363,5.02363,0,0,0-2.4961-.78516,6.6123,6.6123,0,0,0-2.40527.397,5.70279,5.70279,0,0,1-2.09131.3462,8.32539,8.32539,0,0,1-2.13916-.24024,9.26383,9.26383,0,0,0-2.35791-.26465l-4.501-.00195a8.2916,8.2916,0,0,0-2.37549.30225,7.36822,7.36822,0,0,1-2.12841.271,7.72225,7.72225,0,0,0-2.04541.30811A4.12074,4.12074,0,0,1,388.4873,99.41162Z" transform="translate(-386.08385 -70.95013)"/><path class="cls-2" d="M412.73846,71.95013h0c.13584,0,.38862.00007.85059.4614.601.60011.52814.85306.25717,1.79417a7.84653,7.84653,0,0,0-.38629,2.292c0,1.103-.02264,1.63877-.04657,2.206-.0238.563-.04837,1.14518-.04837,2.29039a8.71157,8.71157,0,0,1-.20966,2.04814,10.66279,10.66279,0,0,0-.25021,2.44887,13.35321,13.35321,0,0,0,.18894,2.40567,11.49952,11.49952,0,0,1,.16467,2.09525,4.01641,4.01641,0,0,1-.38834,1.75283,4.35751,4.35751,0,0,0-.2706,3.09074,8.94207,8.94207,0,0,0,.95578,2.312c.50473.92284.50473.92284.0098,1.41848a.81975.81975,0,0,1-.43936.27624,2.69734,2.69734,0,0,1-.88755-.37958,5.51718,5.51718,0,0,0-2.73614-.8465,7.13007,7.13007,0,0,0-2.5621.42224,5.2068,5.2068,0,0,1-1.93427.32113,7.8057,7.8057,0,0,1-2.02939-.22816,9.82546,9.82546,0,0,0-2.46762-.27678l-2.24954-.00105-2.25137-.001a8.83716,8.83716,0,0,0-2.49881.31768,6.85147,6.85147,0,0,1-2.00522.25583,8.143,8.143,0,0,0-2.17017.324,3.86513,3.86513,0,0,1-.84619.16185c-.13541,0-.38745,0-.89429-.50609-.63342-.63254-.57907-.84619-.35028-1.74536a8.215,8.215,0,0,0,.31772-2.15812c0-1.11853.00623-1.67778.01248-2.237.00632-.56485.01261-1.12969.01261-2.25936a6.5415,6.5415,0,0,1,.26519-1.99171,8.5158,8.5158,0,0,0,.33225-2.5053,7.81135,7.81135,0,0,0-.37323-2.53366,5.86367,5.86367,0,0,1-.29132-1.96725,11.01315,11.01315,0,0,1,.17135-2.09029,12.86093,12.86093,0,0,0,.1977-2.41372,7.78156,7.78156,0,0,0-.27591-2.01569c-.17731-.71556-.19583-.79037.4454-1.4325.55963-.56044.76364-.56044.84046-.56044a3.03715,3.03715,0,0,1,.59317.11148,7.829,7.829,0,0,0,2.00674.27188,16.69992,16.69992,0,0,0,2.37045-.146,14.80608,14.80608,0,0,1,2.12592-.131,4.909,4.909,0,0,1,1.91809.33741,6.82156,6.82156,0,0,0,2.57892.44973,9.77669,9.77669,0,0,0,2.471-.279,7.75758,7.75758,0,0,1,2.02993-.22977,13.68206,13.68206,0,0,0,2.40339-.18395,11.8218,11.8218,0,0,1,2.10064-.16089,7.881,7.881,0,0,0,2.29093-.38408,3.94047,3.94047,0,0,1,.95153-.201m-.00012-1c-.8876.00005-1.79815.58512-3.24234.58512-2.252,0-2.252.34484-4.504.34484-2.25045,0-2.25045.5088-4.50091.5088-2.24851,0-2.24851-.78714-4.497-.78714-2.2482,0-2.2482.277-4.49637.277a22.282,22.282,0,0,1-2.59991-.38336,2.1831,2.1831,0,0,0-1.54807.85383c-1.59128,1.59352-.46188,1.9028-.46188,4.1548s-.369,2.252-.369,4.504c0,2.25046.66455,2.25046.66455,4.50091,0,2.24851-.59744,2.24851-.59744,4.497,0,2.2482-.02509,2.2482-.02509,4.49639,0,2.24884-1.26532,3.022.326,4.61107a2.1946,2.1946,0,0,0,1.60089.7985c.8024,0,1.62824-.48587,3.01636-.48587,2.252,0,2.252-.57351,4.504-.57351,2.25045,0,2.25045.00208,4.50091.00208,2.24851,0,2.24851.50494,4.497.50494,2.2482,0,2.2482-.74337,4.49637-.74337,1.661,0,2.60391,1.22608,3.62369,1.22608a1.6077,1.6077,0,0,0,1.147-.56964c1.59131-1.59353-.09882-2.18827-.70136-4.67273-.53076-2.18856.68711-2.35589.68711-4.60789,0-2.25047-.35361-2.25047-.35361-4.50092,0-2.2485.45987-2.2485.45987-4.497,0-2.2482.09494-2.2482.09494-4.49639,0-2.24884,1.427-3.2047-.16428-4.79375a2.12867,2.12867,0,0,0-1.55731-.75379Z" transform="translate(-386.08385 -70.95013)"/><path class="cls-3" d="M392.11333,76.88667c1.69845,1.69846,1.89569,1.50122,3.59415,3.19968,1.6987,1.69869,1.681,1.71643,3.37965,3.41513,1.69912,1.69912,1.27668,2.12157,2.9758,3.82069,1.70186,1.70186,2.17176,1.232,3.87363,2.93382s1.44089,1.96283,3.14276,3.66469" transform="translate(-386.08385 -70.95013)"/><path class="cls-3" d="M409.2728,77.2728c-1.69846,1.69846-2.24266,1.15426-3.94111,2.85272-1.6987,1.69869-1.17306,2.22433-2.87175,3.923-1.69912,1.69912-2.05618,1.34206-3.75531,3.04118-1.70186,1.70187-1.70333,1.7004-3.40519,3.40226s-1.29633,2.10739-2.9982,3.80925" transform="translate(-386.08385 -70.95013)"/></svg>