<svg id="Layer_1" data-name="Layer 1" xmlns="http://www.w3.org/2000/svg" viewBox="0 0 53.50743 53.56226"><defs><style>.cls-1{fill:none;stroke:#81c784;stroke-miterlimit:10;stroke-width:2px;}</style></defs><title>placeholder</title><path class="cls-1" d="M170.84442,159.34477c-1.76384,1.76775-2.34164.13068-4.83886.13068-2.49845,0-2.49845-.24266-4.99691-.24265-2.49954,0-2.49954.59416-4.99908.59416s-2.49954-.3148-4.99908-.3148-2.49958.1944-4.99916.1944c-2.50022,0-2.50022-.18643-5.00045-.18643-2.49887,0-2.49887.36634-4.99774.36634-2.501,0-2.501-.81072-5.00209-.81072-2.50276,0-2.50276.114-5.00553.114s-2.89079,1.73415-4.66247-.0336c-1.76776-1.76384-.48171-2.15341-.48171-4.65063,0-2.49845-.016-2.49845-.016-4.99691,0-2.49954.40794-2.49954.40794-4.99908s-.5338-2.49954-.5338-4.99908.56291-2.49958.56291-4.99916c0-2.50022.152-2.50022.152-5.00045,0-2.49887-.11533-2.49887-.11533-4.99774,0-2.50105-.42555-2.50105-.42555-5.00209,0-2.50276.25031-2.50276.25031-5.00553s-1.94269-3.26482-.17494-5.03651c1.76385-1.76775,2.52828-.28,5.0255-.28,2.49845,0,2.49845.04138,4.99691.04138,2.49954,0,2.49954-.12692,4.99908-.12692s2.49954.33482,4.99908.33482,2.49958.4391,4.99916.4391c2.50022,0,2.50022-.6675,5.00045-.6675,2.49887,0,2.49887-.02039,4.99774-.02039,2.501,0,2.501.59923,5.00209.59923,2.50276,0,2.50276-.2345,5.00553-.2345s3.19938-1.78744,4.97106-.01969c1.76776,1.76384-.08027,2.46269-.08027,4.95991,0,2.49845.29789,2.49845.29789,4.99691,0,2.49954-.61947,2.49954-.61947,4.99908s.80529,2.49954.80529,4.99908-.13684,2.49958-.13684,4.99916c0,2.50022.1399,2.50022.1399,5.00045,0,2.49887-.21211,2.49887-.21211,4.99774,0,2.501.23173,2.501.23173,5.00209,0,2.50276-1.10349,2.59544-.614,5.04987C171.28391,157.07744,172.61218,157.57308,170.84442,159.34477Z" transform="translate(-119.2262 -107.60355)"/></svg>