<svg id="Layer_1" data-name="Layer 1" xmlns="http://www.w3.org/2000/svg" viewBox="0 0 128.92672 45.61479"><defs><style>.cls-1,.cls-2{fill:none;}.cls-1{stroke:#4db6ac;stroke-linecap:round;stroke-linejoin:round;stroke-width:3px;}.cls-2{stroke:#616161;stroke-miterlimit:10;stroke-width:2px;}</style></defs><title>circle-bottom-01</title><polyline class="cls-1" points="1.5 4.594 3.71 3.318 7.341 5.442 12.297 2.581 4.804 9.97 14.296 4.49 6.194 12.905 24.331 2.433 6.077 15.894 29.67 2.272 11.287 16.345 35.752 2.22 14.916 17.203 37.608 4.102 14.94 19.814 45.18 2.355 16.81 21.976 47.933 4.007 20.428 23.515 54.296 3.961 18.184 27.12 61.321 2.215 21.01 29.932 66.422 3.713 26.939 30.335 71.895 4.38 27.946 33.99 79.542 4.202 28.907 36.037 88.726 1.5 36.876 34.358 91.39 2.884 36.41 37.559 97.121 2.507 38.722 38.58 99.825 3.302 42.656 40.644 104.815 4.757 48.091 40.406 110.303 4.488 50.881 42.164 119.202 2.719 58.454 42.047 127.427 2.226 63.481 42.588 121.824 8.903 65.042 44.115 119.038 12.94 76.226 40.307 116.814 16.873 78.157 41.507 112.95 21.419 91.824 35.953 107.283 27.027"/><path class="cls-2" d="M225.452,153.90935c-2.22044-.80284-2.40453-.08274-4.76566-.08274-2.35992,0-2.35992.01681-4.71984.01681-2.36047,0-2.36047.0192-4.72093.0192-2.3614,0-2.3614.01132-4.7228.01132-2.36031,0-2.36031.54326-4.72063.54326-2.36147,0-2.36147.02475-4.72293.02475-2.36083,0-2.36083-.82809-4.72166-.82809-2.36129,0-2.36129.39082-4.72259.39082-2.36113,0-2.36113.43327-4.72227.43327-2.36181,0-2.36181-.89837-4.72362-.89837-2.36122,0-2.36122.1811-4.72245.1811-2.36189,0-2.36189.57015-4.72378.57015-2.36225,0-2.36225-.20478-4.72451-.20478-2.3619,0-2.3619-.4536-4.7238-.4536-2.35959,0-2.35959.74972-4.71917.74972-2.36182,0-2.36182-.58965-4.72364-.58965-2.36038,0-2.36038.21122-4.72077.21122-2.36155,0-2.36155-.38386-4.72311-.38386-2.36258,0-2.36258.79256-4.72516.79256s-2.36257-.69234-4.72515-.69234-2.36262-.01721-4.72523-.01721c-2.36194,0-2.36194.553-4.72388.553-2.36227,0-2.36227-.38658-4.72454-.38658-2.36432,0-2.36432-.23682-4.72864-.23682-2.366,0-2.366.49156-4.7319.49156s-2.418-.65252-4.64354.1503c.66962,1.46536,1.12946,2.75186,1.89847,4.15876.77228,1.41287,1.76468,2.70168,2.63264,4.051.87059,1.35341,1.75512,2.69858,2.71738,3.98346.96412,1.28737,1.85488,2.6456,2.90641,3.85952,1.05254,1.21509,2.45075,2.10974,3.58622,3.24657s2.21328,2.32331,3.42709,3.37724c1.21268,1.053,2.44523,2.07789,3.73142,3.0434,1.28375.96366,2.52338,1.99849,3.87576,2.87041,1.34838.86935,2.85289,1.47949,4.26492,2.253,1.406.77025,2.7538,1.65756,4.21843,2.32828,1.45668.66708,3.01086,1.1026,4.52105,1.66675,1.49974.56024,2.98236,1.17,4.53052,1.6244,1.535.45049,2.98543,1.32284,4.56377,1.665,1.56176.33853,3.26106.01764,4.86114.24592,1.58086.22554,3.13181.88,4.7461.9939,1.59134.1123,3.21889-.37343,4.8389-.37343s3.25256.56053,4.84376.44825c1.61411-.1139,3.245-.24476,4.82565-.47025,1.60036-.2283,3.16928-.71474,4.7313-1.05332,1.57856-.34217,3.19423-.59757,4.72942-1.04813,1.54837-.45443,3.00278-1.22783,4.50271-1.78818,1.5103-.56422,3.10865-.94863,4.56542-1.61579,1.46477-.67082,2.799-1.63161,4.2052-2.402,1.412-.77358,2.50779-2.05106,3.85615-2.92045,1.35232-.87194,3.15652-1.09187,4.44022-2.05556,1.28616-.96553,2.06371-2.56458,3.27635-3.61755,1.21372-1.05392,2.75749-1.74776,3.89292-2.8846s2.22992-2.33268,3.28238-3.54772c1.05144-1.21387,2.17655-2.39473,3.14059-3.682.96212-1.28473,1.33245-2.9836,2.20292-4.33685.86789-1.34925,2.23767-2.40321,3.00989-3.816C224.27387,157.07152,224.78238,155.37467,225.452,153.90935Z" transform="translate(-100.08257 -150.94263)"/></svg>