<svg id="Layer_1" data-name="Layer 1" xmlns="http://www.w3.org/2000/svg" viewBox="0 0 125.46595 44.36965"><defs><style>.cls-1,.cls-2{fill:none;}.cls-1{stroke:#ab47bc;stroke-linecap:round;stroke-linejoin:round;stroke-width:3px;}.cls-2{stroke:#bdbdbd;stroke-miterlimit:10;stroke-width:2px;}</style></defs><title>circle-top-00</title><polyline class="cls-1" points="23.49 14.895 38.526 6.213 8.048 28.234 54.353 1.5 6.671 32.656 57.254 3.452 5.034 36.946 62.682 3.663 3.931 39.899 70.223 1.625 8.355 40.816 76.338 1.566 16.189 39.725 78.134 3.961 22.822 39.344 79.79 6.454 29.274 39.277 88.526 5.068 32.82 40.528 90.362 7.306 42.635 39.236 97.207 7.729 42.55 41.942 95.675 11.27 48.059 41.572 101.706 10.599 55.545 40.116 99.537 14.718 63.851 39.169 104.17 15.891 64.686 42.87 105.338 19.399 70.987 41.646 107.166 20.758 76.573 42.412 111.308 22.358 88.913 39.696 114.259 25.063 92.17 41.931 115.349 28.549 96.744 41.616 115.398 30.847 105.649 39.402 121.789 30.084 107.52 41.098 120.263 33.741 114.731 41.153 122.78 36.506 119.768 41.158 123.136 39.213"/><path class="cls-2" d="M134.08074,137.51487c2.22044.80284,2.37181-.33194,4.73294-.33194,2.35992,0,2.35992.04279,4.71984.04279,2.36047,0,2.36047.37885,4.72093.37885,2.3614,0,2.3614-.11258,4.7228-.11258,2.36031,0,2.36031-.05927,4.72063-.05927,2.36147,0,2.36147.33583,4.72293.33583,2.36083,0,2.36083-.73593,4.72166-.73593,2.36129,0,2.36129-.0213,4.72259-.0213,2.36113,0,2.36113.77209,4.72227.77209,2.36181,0,2.36181-.04749,4.72362-.04749,2.36122,0,2.36122-.69072,4.72245-.69072,2.36189,0,2.36189.90356,4.72378.90356,2.36225,0,2.36225-.86337,4.72451-.86337,2.3619,0,2.3619.36058,4.7238.36058,2.35959,0,2.35959-.129,4.71917-.129,2.36182,0,2.36182-.206,4.72364-.206,2.36038,0,2.36038.20725,4.72077.20725,2.36155,0,2.36155.08517,4.72311.08517,2.36258,0,2.36258-.20276,4.72516-.20276s2.36257-.11231,4.72515-.11231,2.36262.26533,4.72523.26533c2.36194,0,2.36194-.068,4.72388-.068,2.36227,0,2.36227.49993,4.72454.49993,2.36432,0,2.36432-.79211,4.72864-.79211,2.36595,0,2.36595.59047,4.7319.59047s2.42294.473,4.64851-.32979c-.66962-1.46536-1.02477-2.82558-1.79378-4.23248-.77228-1.41287-1.60389-2.81571-2.47185-4.16505-.87059-1.35341-1.84072-2.663-2.803-3.94792-.96413-1.28737-1.83514-2.68439-2.88667-3.89831-1.05255-1.21509-2.49721-2.09046-3.63269-3.22728s-2.2724-2.27941-3.48621-3.33333c-1.21268-1.053-2.27494-2.32261-3.56114-3.28811-1.28374-.96367-2.82884-1.58364-4.18122-2.45556-1.34838-.86934-2.50474-2.10507-3.91678-2.87861-1.406-.77025-3.27-.64212-4.73463-1.31284-1.45667-.66708-2.75356-1.69061-4.26376-2.25476-1.49974-.56024-3.05845-.9495-4.60662-1.40386-1.535-.4505-3.10081-.76269-4.67916-1.10481-1.56176-.33853-3.13279-.585-4.73288-.81328-1.58086-.22554-3.16776-.29755-4.78206-.41147C198.70143,98.41418,197.12,97.89,195.5,97.89s-3.22984.11761-4.821.22989c-1.61411.1139-3.19652.42158-4.77721.64707-1.60036.2283-3.22331.29493-4.78534.63352-1.57855.34216-3.21981.48974-4.755.94031-1.54837.45443-3.03245,1.15458-4.53238,1.71493-1.51029.56422-2.9871,1.23285-4.44386,1.9-1.46477.67082-2.80587,1.58926-4.212,2.35964-1.412.77358-3.02479,1.22821-4.37315,2.09759-1.35233.872-2.65737,1.85319-3.94106,2.81687-1.28616.96554-2.0292,2.59371-3.24185,3.64669-1.21372,1.05391-2.3811,2.10942-3.51653,3.24626s-2.77835,1.79537-3.83081,3.01041c-1.05144,1.21387-1.93591,2.58419-2.9,3.87149-.96212,1.28473-1.54554,2.82944-2.416,4.18268-.86789,1.34925-2.259,2.39648-3.03126,3.80925C135.15353,134.40351,134.75034,136.04955,134.08074,137.51487Z" transform="translate(-132.72016 -96.29765)"/></svg>