<svg id="Layer_1" data-name="Layer 1" xmlns="http://www.w3.org/2000/svg" viewBox="0 0 142.75588 45.42781"><defs><style>.cls-1,.cls-2{fill:none;}.cls-1{stroke:#4db6ac;stroke-linecap:round;stroke-linejoin:round;stroke-width:3px;}.cls-2{stroke:#616161;stroke-miterlimit:10;stroke-width:2px;}</style></defs><title>circle-middle-01</title><polyline class="cls-1" points="6.716 3.92 7.018 3.746 4.091 8.39 10.464 4.71 7.887 9.946 17.307 4.508 4.858 14.515 22.651 4.242 5.587 16.837 28.391 3.671 4.797 20.825 33.749 4.109 2.961 25.802 41.273 3.682 5.738 27.512 49.573 2.203 1.5 33.051 51.819 3.999 6.356 32.66 58.858 2.348 8.932 34.086 62.793 2.989 7.957 37.958 71.104 1.5 5.538 42.019 72.269 3.492 12.226 41.878 80.529 2.444 16.95 42.422 87.531 1.672 19.553 43.256 91.33 1.815 25.706 42.384 93.916 3.004 30.17 43.928 101.968 2.475 38.399 42.184 105.73 3.31 43.658 42.721 111.517 3.542 47.175 43.321 115.052 4.133 56.474 41.651 121.293 4.228 62.361 40.79 126.28 3.886 65.503 42.039 130.499 4.514 71.579 41.961 136.686 4.371 76.361 41.532 138.202 5.828 77.324 43.622 136.409 9.509 88.401 41.826 141.256 11.31 94.169 42.319 139.361 16.228 99.108 42.184 139.687 18.755 107.635 41.805 140.237 22.982 109.835 42.862 139.449 25.764 119.027 40.371 137.746 29.564 118.504 43.76 137.866 32.582 129.443 40.871 134.495 37.954 133.285 42.242 136.717 40.26"/><path class="cls-2" d="M96.0748,126.01471c0,1.6833.07156,3.38267.1933,5.03479.12358,1.67706.58,3.32786.82421,4.96855.24718,1.661.373,3.35436.73872,4.97361.36957,1.6363,1.26521,2.71051,1.75061,4.29968,2.28766.69054,2.249.42651,4.63857.42651,2.39037,0,2.39037.1319,4.78075.1319,2.38916,0,2.38916-.11832,4.77832-.11832,2.38971,0,2.38971.00455,4.77942.00455,2.39066,0,2.39066.26789,4.78132.26789,2.38955,0,2.38955-.61205,4.77911-.61205,2.39073,0,2.39073.56212,4.78145.56212,2.39008,0,2.39008-.32777,4.78016-.32777,2.39055,0,2.39055.50011,4.7811.50011,2.39039,0,2.39039-.74075,4.78078-.74075,2.39107,0,2.39107.33424,4.78215.33424,2.39047,0,2.39047-.06787,4.781-.06787,2.39116,0,2.39116.05206,4.78231.05206,2.39152,0,2.39152.456,4.78305.456,2.39116,0,2.39116-.22623,4.78232-.22623,2.38883,0,2.38883-.19389,4.77765-.19389,2.39108,0,2.39108-.06195,4.78216-.06195,2.38963,0,2.38963.05118,4.77925.05118,2.39082,0,2.39082-.13648,4.78163-.13648,2.39185,0,2.39185.36573,4.78371.36573s2.39184-.18793,4.78369-.18793,2.39189.40306,4.78378.40306c2.3912,0,2.3912-.71905,4.78241-.71905,2.39153,0,2.39153-.1698,4.78307-.1698,2.39362,0,2.39362.41584,4.78723.41584,2.39526,0,2.39526-.28986,4.79052-.28986s2.58816,1.34,4.88162.64913c.48544-1.58932,1.23858-3.41194,1.60817-5.04841.36569-1.61915.24914-3.35539.49629-5.01623.24414-1.64051.75273-3.27577.87631-4.95265.12175-1.65224-.34615-3.34429-.34615-5.02772s-.14063-3.3304-.26237-4.98252c-.12358-1.67708-.008-3.3597-.25217-5.0004-.24719-1.66095-.60669-3.291-.97241-4.91026-.36957-1.6363-.74393-3.29181-1.22933-4.881-2.28766-.69055-2.39911.40724-4.78872.40724-2.39038,0-2.39038-.83126-4.78075-.83126-2.38916,0-2.38916.16828-4.77832.16828-2.38971,0-2.38971.26957-4.77942.26957-2.39065,0-2.39065.30479-4.7813.30479-2.38956,0-2.38956.12015-4.77912.12015-2.39072,0-2.39072-.12156-4.78144-.12156-2.39008,0-2.39008.05652-4.78015.05652-2.39055,0-2.39055-.62322-4.7811-.62321-2.39039,0-2.39039-.0854-4.78077-.0854-2.39108,0-2.39108.557-4.78215.557-2.39047,0-2.39047-.041-4.781-.041-2.39115,0-2.39115-.2295-4.7823-.2295-2.39152,0-2.39152-.055-4.783-.055-2.39117,0-2.39117.117-4.78233.117-2.38882,0-2.38882-.39774-4.77764-.39774-2.39107,0-2.39107.32816-4.78215.32816-2.38963,0-2.38963.28834-4.77925.28834-2.39082,0-2.39082-.474-4.78163-.474-2.39185,0-2.39185-.04-4.7837-.04s-2.39184.428-4.78369.428-2.39188-.55406-4.78377-.55406c-2.3912,0-2.3912.68907-4.78241.68907-2.39153,0-2.39153-.22263-4.78306-.22263-2.39362,0-2.39362.37794-4.78723.37794-2.39526,0-2.39526-.45594-4.79051-.45594s-2.63516-1.09853-4.92862-.40765c-.48545,1.58933-.85994,3.6429-1.22953,5.27937-.36569,1.61916-.43739,3.30184-.68455,4.96269-.24414,1.64051-1.056,3.24265-1.17959,4.91954C96.08751,122.62743,96.0748,124.33127,96.0748,126.01471Z" transform="translate(-92.33548 -103.48629)"/></svg>