<svg id="Layer_1" data-name="Layer 1" xmlns="http://www.w3.org/2000/svg" viewBox="0 0 144.75487 46.28678"><defs><style>.cls-1,.cls-2{fill:none;}.cls-1{stroke:#ffb74d;stroke-linecap:round;stroke-linejoin:round;stroke-width:3px;}.cls-2{stroke:#616161;stroke-miterlimit:10;stroke-width:2px;}</style></defs><title>square-top-02</title><polyline class="cls-1" points="4.883 4.269 6.384 3.403 2.048 9.118 14.374 2.001 3.635 12.046 15.18 5.381 2.794 14.943 20.911 4.483 2.346 19.482 27.278 5.087 2.546 23.72 35.933 4.443 5.329 25.108 42.959 3.382 6.956 26.944 51.027 1.5 1.5 34.03 54.797 3.259 7.864 33.425 58.443 4.224 6.941 36.649 61.719 5.023 6.843 39.064 66.991 4.338 8.326 40.53 69.826 5.024 12.453 42.42 82.293 2.098 14.984 44.787 88.716 2.217 20.964 44.208 93.422 2.374 28.06 43.827 97.247 3.883 36.134 41.965 104.06 2.748 35.656 44.629 104.629 4.808 43.437 44.464 113.427 4.055 50.825 44.161 124.035 1.894 61.126 41.985 130.82 1.747 64.489 44.283 134.717 3.737 71.866 44.531 141.036 4.596 83.433 40.988 138.798 9.023 86.111 42.104 138.833 11.665 91.005 42.98 143.255 12.813 97.338 42.442 138.903 18.445 100.832 43.762 140.68 20.756 106.769 43.465 143.206 22.429 115.246 42.712 142.73 26.845 117.542 43.948 141.864 29.905 121.565 44.035 141.11 32.75 133.336 41.179 136.832 39.16 136.145 42.618 141.136 39.736"/><path class="cls-2" d="M199.20594,125.68691c1.72571-1.76274-.42667-2.66846-.42667-5.13531s-.27219-2.46684-.27219-4.93368.879-2.46688.879-4.93376c0-2.46753-.68627-2.46753-.68627-4.93505,0-2.46618.65731-2.46618.65731-4.93236,0-2.46833-.08673-2.46833-.08673-4.93666,0-2.47-.00733-2.47-.00733-4.94s1.64759-3.35315-.07675-5.12167c-1.68127-1.72434-2.5946.12-5.00293.12-2.40933,0-2.40933.56148-4.81865.56148-2.4101,0-2.4101-.93277-4.8202-.93277-2.40888,0-2.40888.87347-4.81775.87347-2.40943,0-2.40943-.0968-4.81885-.0968-2.41038,0-2.41038-.55108-4.82076-.55108-2.40928,0-2.40928.34221-4.81855.34221-2.41045,0-2.41045.26059-4.8209.26059-2.4098,0-2.4098-.19724-4.81959-.19724-2.41028,0-2.41028.06727-4.82055.06727-2.41012,0-2.41012-.60754-4.82023-.60754-2.4108,0-2.4108.79077-4.8216.79077-2.4102,0-2.4102-.88818-4.8204-.88818-2.41089,0-2.41088.604-4.82177.604-2.41125,0-2.41125-.29444-4.82251-.29444-2.41089,0-2.41089.44493-4.82178.44493-2.40853,0-2.40853-.52636-4.81706-.52636-2.41081,0-2.41081.41255-4.82162.41255-2.40934,0-2.40934.25169-4.81869.25169-2.41054,0-2.41054-.57045-4.82108-.57045-2.41158,0-2.41158.106-4.82317.106s-2.41158.17624-4.82316.17624-2.41163-.43626-4.82325-.43626c-2.41093,0-2.41093.10166-4.82187.10166-2.41126,0-2.41126-.09208-4.82253-.09208-2.41337,0-2.41337-.18656-4.82673-.18656-2.415,0-2.415.7153-4.83.7153s-3.07585-1.92905-4.7653-.20334c-1.72571,1.76274-.071,2.40346-.071,4.87031s.00088,2.46684.00088,4.93368-.42808,2.46688-.42808,4.93376c0,2.46753.624,2.46753.624,4.93505,0,2.46618-.60668,2.46618-.60668,4.93236,0,2.46833.18879,2.46833.18879,4.93666,0,2.47.69125,2.47.69125,4.94s-2.18947,3.17276-.46513,4.94128c1.68128,1.72434,2.40959-.19772,4.81792-.19772,2.40933,0,2.40933.01712,4.81865.01712,2.4101,0,2.4101-.24613,4.8202-.24613,2.40888,0,2.40888.51371,4.81775.51371,2.40943,0,2.40943-.35609,4.81885-.35609,2.41038,0,2.41038.23066,4.82076.23066,2.40928,0,2.40928-.34663,4.81855-.34663,2.41045,0,2.41045.36684,4.8209.36684,2.4098,0,2.4098.3397,4.81959.3397,2.41028,0,2.41028-.45622,4.82055-.45622s2.41012-.13511,4.82023-.13511c2.4108,0,2.4108.02069,4.8216.02069,2.4102,0,2.4102.59282,4.8204.59282,2.41089,0,2.41089-.20737,4.82177-.20737,2.41125,0,2.41125-.02981,4.82251-.02981,2.41089,0,2.41089-.18785,4.82178-.18785,2.40853,0,2.40853.27076,4.81706.27076,2.41081,0,2.41081-.04361,4.82162-.04361,2.40934,0,2.40934-.4922,4.81869-.4922,2.41054,0,2.41054.55632,4.82108.55632,2.41158,0,2.41158.11024,4.82317.11024s2.41158-.18583,4.82316-.18583,2.41163.30784,4.82325.30784c2.41093,0,2.41093-.24592,4.82187-.24592,2.41126,0,2.41126.087,4.82253.087,2.41337,0,2.41337-.01566,4.82673-.01566,2.415,0,2.52038-.99652,4.871-.44246C196.83527,125.93022,197.51648,127.41261,199.20594,125.68691Z" transform="translate(-59.14668 -82.62667)"/></svg>