<svg id="Layer_1" data-name="Layer 1" xmlns="http://www.w3.org/2000/svg" viewBox="0 0 51.08268 43.2338"><defs><style>.cls-1,.cls-2{fill:none;}.cls-1{stroke:#ffb74d;stroke-linecap:round;stroke-linejoin:round;stroke-width:3px;}.cls-2{stroke:#616161;stroke-miterlimit:10;stroke-width:2px;}</style></defs><title>triangle-bottom-02</title><polyline class="cls-1" points="1.5 4.807 5.673 2.398 4.017 7.224 8.402 4.692 3.987 10.062 18.539 1.66 7.647 10.488 22.177 2.1 8.315 14.312 27.06 3.49 9.795 15.886 30.951 3.672 9.989 18.21 38.932 1.5 11.221 21.059 42.467 3.019 11.188 23.816 49.583 1.649 15.701 24.908 47.007 6.833 17.672 27.942 45.113 12.099 15.747 32.053 40.798 17.59 17.839 34.394 36.162 23.815 24.102 34.51 30.405 30.871 24.77 37.316 31.998 33.143 24.782 40.8 27.674 39.13"/><path class="cls-2" d="M179.73946,135.58091c-1.262-2.194-2.416-.47791-4.94711-.47791-2.5322,0-2.5322.22422-5.06441.22422s-2.53219.117-5.06439.117-2.53224.385-5.06448.385c-2.5329,0-2.5329-.64928-5.06579-.64928-2.53153,0-2.53153.83254-5.06305.83254-2.53372,0-2.53372-.049-5.06745-.049-2.53546,0-2.53546-.20081-5.07093-.20081s-4.1081-2.62032-5.37911-.42643c-1.26882,2.19011,1.8889,2.18858,3.15445,4.38058,1.2661,2.19295.53442,2.61539,1.80052,4.80834s1.67978,1.9541,2.94588,4.14705,1.56631,2.01967,2.83243,4.21266c1.26575,2.19235,1.18723,2.23769,2.453,4.43,1.26593,2.19266,1.16259,2.25233,2.42853,4.445,1.267,2.19457,1.15782,2.25762,2.42486,4.45218,1.2679,2.19608,1.13147,2.27485,2.39938,4.47092s.13063,4.01679,2.66644,4.02087c2.5311.00408,1.293-1.87971,2.5586-4.07171,1.2661-2.19295.81447-2.4537,2.08057-4.64665s1.96926-1.787,3.23536-3.97992.61312-2.57,1.87924-4.763c1.26576-2.19235,1.96327-1.78965,3.229-3.982,1.26594-2.19266.52833-2.61852,1.79427-4.81118,1.267-2.19457,1.48254-2.07014,2.74958-4.26471,1.2679-2.19608.63142-2.77892,2.38193-4.6136C178.86022,137.58659,181.00383,137.779,179.73946,135.58091Z" transform="translate(-131.3119 -132.47001)"/></svg>