<svg id="Layer_1" data-name="Layer 1" xmlns="http://www.w3.org/2000/svg" viewBox="0 0 104.20586 46.05143"><defs><style>.cls-1,.cls-2{fill:none;}.cls-1{stroke:#ab47bc;stroke-linecap:round;stroke-linejoin:round;stroke-width:3px;}.cls-2{stroke:#bdbdbd;stroke-miterlimit:10;stroke-width:2px;}</style></defs><title>triangle-middle-00</title><polyline class="cls-1" points="1.5 4.473 4.167 2.933 6.576 4.595 10.483 2.339 7.153 8.429 15.261 3.748 5.349 13.098 20.826 4.163 10.88 13.726 31.759 1.672 13.03 16.854 39.112 1.796 14.217 18.745 39.225 4.307 13.48 21.747 45.12 3.479 16.075 24.663 50.107 5.015 17.049 26.916 60.405 1.885 20.263 27.756 65.125 1.855 19.706 30.828 66.604 3.751 23.063 32.773 77.229 1.5 20.906 37.552 76.943 5.199 24.965 38.317 85.289 3.489 20.588 43.219 88.076 4.255 27.794 43.141 95.372 4.125 35.962 42.687 100.902 5.194 40.388 44.038 100.168 9.524 49.718 41.026 95.332 14.69 51.023 44.551 95.786 18.707 61.76 41.339 87.954 26.216 69.448 41.07 87.402 30.705 70.172 43.041 87.962 32.77 73.758 44.395 83.004 39.057"/><path class="cls-2" d="M184.73751,127.427c2.18887-1.271.84318-2.55845,2.10874-4.75046,1.2661-2.19295,1.85456-1.8532,3.12067-4.04615s1.40826-2.11087,2.67436-4.30382,1.16776-2.24979,2.43388-4.44278c1.26576-2.19236.97911-2.35786,2.24487-4.55022,1.26593-2.19266,1.29487-2.176,2.56081-4.36862,1.267-2.19457.77737-2.47728,2.04441-4.67185,1.26791-2.19608,1.47441-2.07685,2.74231-4.27293s4.07408-2.08734,2.9139-4.34219c-1.09706-2.13217-2.552.44461-4.94985.44461-2.3972,0-2.3972-.07764-4.79439-.07764-2.39768,0-2.39768-.02692-4.79535-.02692-2.39751,0-2.39751-.66512-4.795-.66512-2.3982,0-2.3982.176-4.7964.176-2.3976,0-2.3976.48768-4.7952.48768-2.39828,0-2.39828.10984-4.79656.10984-2.39864,0-2.39864-.50069-4.79729-.50069-2.39829,0-2.39829-.2218-4.79658-.2218-2.39594,0-2.39594.84728-4.79188.84728-2.3982,0-2.3982-.59612-4.79641-.59612-2.39674,0-2.39674.56106-4.79349.56106-2.39794,0-2.39794-.44869-4.79588-.44869-2.399,0-2.399.39821-4.798.39821s-2.399.07834-4.79795.07834-2.399-.95273-4.798-.95273c-2.39833,0-2.39833.42168-4.79666.42168-2.39866,0-2.39866-.3217-4.79732-.3217-2.40075,0-2.40075.52232-4.80149.52232-2.4024,0-2.4024-.12991-4.8048-.12991s-3.50534-2.05873-4.61139.07391c-1.16532,2.2469.90928,2.18574,2.17484,4.37774,1.2661,2.193,1.60929,1.99482,2.8754,4.18777s1.28233,2.18358,2.54843,4.37653.67018,2.537,1.93631,4.73c1.26576,2.19236,2.06452,1.7312,3.33028,3.92356,1.26594,2.19266.86894,2.42187,2.13487,4.61453,1.267,2.19457,1.23583,2.2126,2.50286,4.40717,1.26791,2.19607,1.39618,2.122,2.66409,4.3181s.03074,3.54172,2.2224,4.81726c2.16542,1.26026,2.71945-.512,5.22491-.512,2.50393,0,2.50393-.14753,5.00787-.14753,2.50517,0,2.50517.38841,5.01035.38841,2.50626,0,2.50626-.19684,5.01253-.19684s2.50626-.00669,5.01252-.00669,2.5063.0672,5.0126.0672c2.507,0,2.507-.03485,5.0139-.03485,2.5056,0,2.5056.11106,5.01119.11106,2.50777,0,2.50777.13385,5.01554.13385,2.50949,0,2.58914-.83544,5.05845-.38816C182.26848,127.49887,182.56734,128.68715,184.73751,127.427Z" transform="translate(-104.65066 -84.52048)"/></svg>