<svg id="Layer_1" data-name="Layer 1" xmlns="http://www.w3.org/2000/svg" viewBox="0 0 159.80178 46.2603"><defs><style>.cls-1,.cls-2{fill:none;}.cls-1{stroke:#4db6ac;stroke-linecap:round;stroke-linejoin:round;stroke-width:3px;}.cls-2{stroke:#616161;stroke-miterlimit:10;stroke-width:2px;}</style></defs><title>triangle-top-01</title><polyline class="cls-1" points="1.5 4.894 2.17 4.507 2.141 8.87 10.038 4.31 7.007 9.847 15.436 4.981 10.787 11.961 26.198 3.064 8.364 17.841 34.917 2.511 14.722 17.829 37.102 4.907 14.387 22.561 49.012 2.571 16.452 25.974 58.842 1.5 18.776 28.496 63.287 2.798 18.731 33.097 70.583 3.161 17.903 36.372 72.7 4.735 23.016 36.955 80.608 3.704 21.75 41.69 91.268 1.554 26.522 42.613 97.453 1.661 34.174 42.763 104.204 2.331 41.15 41.639 110.494 1.603 46.331 42.988 115.139 3.262 56.857 41.17 124.418 2.163 60.878 41.735 125.34 4.518 64.725 43.312 131.037 5.027 74.801 41.244 139.603 3.831 78.263 41.858 145.321 3.142 80.871 43.356 149.224 3.892 88.696 41.957 157.487 2.24 92.165 43.634 156.222 6.652 97.535 44.76 150.496 14.183 106.942 43.619 146.354 20.865 110.978 44.755 145.602 24.765 122.648 40.992 144.269 28.509 129.748 41.042 137.539 36.543 130.787 43.155 136.012 40.138"/><path class="cls-2" d="M212.06948,79.2617c2.17256-1.29864,1.414-1.95984,2.6796-4.15185,1.2661-2.19295,1.39389-2.11917,2.66-4.31212s.6935-2.52355,1.9596-4.7165,1.60742-1.99594,2.87354-4.18893c1.26576-2.19236,1.23735-2.20876,2.50311-4.40112,1.26594-2.19267,1.2459-2.20423,2.51184-4.3969,1.267-2.19457,1.0556-2.31664,2.32264-4.51121,1.26791-2.19608,1.67746-1.95962,2.94537-4.1557s3.90269-2.3143,2.71433-4.55442c-1.14013-2.14921-2.6724.36017-5.1053.36017-2.43387,0-2.43387-.44036-4.86773-.44036-2.43571,0-2.43571.214-4.87143.214-2.43394,0-2.43394.0668-4.86788.0668-2.43351,0-2.43351-.13654-4.867-.13654-2.43453,0-2.43453-.09622-4.86905-.09622-2.4353,0-2.4353-.314-4.8706-.314-2.43406,0-2.43406.03147-4.86813.03147-2.43462,0-2.43462.60411-4.86924.60411-2.43559,0-2.43559-.06543-4.87117-.06543-2.43447,0-2.43447-.01132-4.86894-.01132-2.43565,0-2.43565-.25092-4.87131-.25092-2.435,0-2.435.641-4.87.641-2.43548,0-2.43548-.18592-4.871-.18592-2.43531,0-2.43531-.06858-4.87063-.06858-2.436,0-2.436-.19526-4.872-.19526-2.4354,0-2.4354-.48127-4.87081-.48127-2.43609,0-2.43609.249-4.87218.249-2.43647,0-2.43647-.245-4.87294-.245-2.4361,0-2.4361.318-4.87221.318-2.43371,0-2.43371.24735-4.86743.24735-2.436,0-2.436-.19584-4.872-.19584-2.43454,0-2.43454-.39631-4.86908-.39631-2.43575,0-2.43575.65914-4.8715.65914-2.4368,0-2.4368-.37022-4.8736-.37022s-2.4368-.13428-4.8736-.13428-2.43684.67723-4.87368.67723c-2.43615,0-2.43615-.74843-4.87229-.74843-2.43648,0-2.43648-.04334-4.873-.04334-2.4386,0-2.4386.62633-4.8772.62633-2.44027,0-2.44027-.06284-4.88055-.06284s-3.76274-2.29492-4.91543-.144c-1.19558,2.23094,1.21719,2.25875,2.48275,4.45075,1.2661,2.193,1.67286,1.95812,2.939,4.15107s.6108,2.57129,1.8769,4.76424S88.13432,55.258,89.40044,57.451c1.26576,2.19236,1.07917,2.30009,2.34493,4.49245,1.26593,2.19267,1.377,2.12856,2.6429,4.32123,1.267,2.19457,1.08917,2.29726,2.35621,4.49183,1.2679,2.19608,1.5456,2.03575,2.81351,4.23183s.38959,2.84235,2.56478,4.14578c2.05608,1.23205,2.18655-.04739,4.58352-.04739,2.39587,0,2.39587.25047,4.79174.25047,2.397,0,2.397.39482,4.79407.39482,2.39639,0,2.39639-.34794,4.79278-.34794,2.39686,0,2.39686.07562,4.79372.07562,2.39671,0,2.39671.09839,4.79341.09839,2.39738,0,2.39738-.39845,4.79477-.39845,2.39679,0,2.39679.51769,4.79358.51769,2.39747,0,2.39747-.0181,4.79494-.0181,2.39784,0,2.39784-.2844,4.79567-.2844,2.39748,0,2.39748-.35191,4.795-.35191,2.39513,0,2.39513.776,4.79026.776,2.39739,0,2.39739-.5686,4.79479-.5686,2.39593,0,2.39593.41908,4.79187.41908,2.39713,0,2.39713.30785,4.79426.30785,2.39816,0,2.39816-.32689,4.79633-.32689s2.39816.26219,4.79633.26219,2.3982-.21339,4.79641-.21339c2.39752,0,2.39752-.21058,4.795-.21058,2.39785,0,2.39785.19016,4.7957.19016,2.39994,0,2.39994-.22522,4.79988-.22522,2.40158,0,2.42871-.31028,4.80836.01356C209.79517,79.7724,210.00808,80.49388,212.06948,79.2617Z" transform="translate(-76.7382 -36.5388)"/></svg>