<svg id="Layer_1" data-name="Layer 1" xmlns="http://www.w3.org/2000/svg" viewBox="0 0 50.87594 43.86123"><defs><style>.cls-1,.cls-2{fill:none;}.cls-1{stroke:#ab47bc;stroke-linecap:round;stroke-linejoin:round;stroke-width:3px;}.cls-2{stroke:#bdbdbd;stroke-miterlimit:10;stroke-width:2px;}</style></defs><title>triangle-bottom-00</title><polyline class="cls-1" points="1.5 4.234 3.416 3.128 3.613 5.973 11.361 1.5 5.462 8.83 15.751 2.89 9.619 10.613 23.988 2.316 7.694 16.155 29.099 3.797 8.349 19.417 35.633 3.665 11.828 20.006 40.498 3.453 12.104 23.581 49.376 2.062 15.963 24.997 42.466 9.695 14.97 28.108 38.846 14.323 18.638 28.613 39.193 16.746 14.573 33.822 38.938 19.754 16.635 35.908 33.17 26.362 18.532 37.167 30.286 30.381 23.225 38.887 27.173 36.608 24.353 41.835 27.217 40.181"/><path class="cls-2" d="M179.52153,135.70627c-1.262-2.194-2.19808-.40524-4.72918-.40524-2.5322,0-2.5322.52843-5.06441.52843s-2.53219-.6982-5.06439-.6982-2.53224.13672-5.06448.13672c-2.5329,0-2.5329.20655-5.06579.20655-2.53153,0-2.53153-.2017-5.06305-.20169-2.53372,0-2.53372.73033-5.06745.73033-2.53546,0-2.53546-.65428-5.07093-.65428s-3.60312-1.91405-4.87413.27983c-1.26881,2.19011,1.28124,1.95531,2.54679,4.14731,1.2661,2.19295.90076,2.40388,2.16686,4.59683s1.283,2.18321,2.54906,4.37616,1.77743,1.89778,3.04355,4.09076c1.26576,2.19236.49425,2.63779,1.76,4.83015,1.26593,2.19266,1.66463,1.96247,2.93056,4.15513,1.267,2.19457,1.64723,1.97506,2.91426,4.16963,1.2679,2.19608.53305,2.62035,1.801,4.81642s.35219,4.17045,2.888,4.17453c2.5311.00407.99533-2.3337,2.26088-4.5257,1.2661-2.19295,1.57868-2.01248,2.84478-4.20543s1.27186-2.18962,2.538-4.38257,1.04446-2.321,2.31058-4.51395c1.26575-2.19235,1.27141-2.18909,2.53717-4.38144,1.26593-2.19266,1.71775-1.93181,2.98368-4.12447,1.267-2.19456.87165-2.42284,2.13868-4.61741,1.26791-2.19608.85261-2.53444,2.58819-4.38326C179.06169,137.93183,180.7859,137.90438,179.52153,135.70627Z" transform="translate(-132.90382 -132.12442)"/></svg>