<svg id="Layer_1" data-name="Layer 1" xmlns="http://www.w3.org/2000/svg" viewBox="0 0 103.80007 45.67099"><defs><style>.cls-1,.cls-2{fill:none;}.cls-1{stroke:#4db6ac;stroke-linecap:round;stroke-linejoin:round;stroke-width:3px;}.cls-2{stroke:#616161;stroke-miterlimit:10;stroke-width:2px;}</style></defs><title>triangle-middle-01</title><polyline class="cls-1" points="2.093 3.614 3.218 2.965 1.5 8.326 11.073 2.799 7.491 8.716 15.12 4.311 5.737 13.774 22.136 4.307 11.203 13.329 26.585 4.448 6.964 18.87 32.704 4.009 7.925 21.357 39.57 3.087 13.733 20.524 42.811 3.736 12.623 25.189 50.567 3.282 15.214 27.162 58.39 2.235 19.31 27.285 63.224 1.931 19.25 30.542 64.132 4.629 16.33 35.641 71.18 3.974 20.869 37.43 77.161 4.93 25.671 37.25 87.591 1.5 24.53 42.454 92.266 3.346 29.331 44.078 101.728 2.28 39.892 41.985 98.382 8.216 49.632 40.429 93.9 14.871 50.543 44.171 92.024 20.221 58.154 42.358 89.742 24.12 62.289 42.35 89.826 26.452 69.125 41.216 89.035 29.721 75.067 41.726 85.636 35.624 77.357 42.824 80.114 41.232"/><path class="cls-2" d="M184.65127,127.27849c2.18886-1.271,1.21989-2.24221,2.48544-4.43422,1.26611-2.19295,1.61923-1.98907,2.88534-4.182s.99221-2.35109,2.25831-4.544.98925-2.35284,2.25537-4.54583c1.26576-2.19236,1.15047-2.25892,2.41623-4.45128,1.26594-2.19266,1.59351-2.00354,2.85945-4.1962,1.267-2.19457.98474-2.35756,2.25178-4.55213,1.26791-2.19608,1.639-1.98185,2.90686-4.17793s3.70809-2.22931,2.54791-4.48416c-1.09706-2.13217-2.4885-.39116-4.88635-.39116-2.3972,0-2.3972.71813-4.79439.71813-2.39768,0-2.39768-.03073-4.79535-.03073-2.39751,0-2.39751-.51018-4.795-.51018-2.3982,0-2.3982.4128-4.7964.4128-2.3976,0-2.3976.13614-4.7952.13614-2.39828,0-2.39828-.232-4.79656-.232-2.39864,0-2.39864.2573-4.79729.2573-2.39829,0-2.39829-.1319-4.79658-.1319-2.39594,0-2.39594-.26057-4.79188-.26057-2.3982,0-2.3982.1659-4.79641.1659-2.39674,0-2.39674.32237-4.79349.32237-2.39794,0-2.39794-.42409-4.79588-.42409-2.399,0-2.399.37282-4.798.37282s-2.399.02191-4.79795.02191-2.399-.33305-4.798-.33305c-2.39833,0-2.39833-.20542-4.79666-.20542-2.39866,0-2.39866.07175-4.79732.07175-2.40075,0-2.40075.19181-4.80149.19181-2.4024,0-2.4024.03784-4.8048.03784s-4.04471-2.45513-5.15076-.32249c-1.16532,2.2469,1.51552,2.42687,2.78108,4.61887,1.2661,2.19295,1.574,2.0152,2.84008,4.20815s.75413,2.48854,2.02024,4.68149,1.1566,2.25622,2.42272,4.44921c1.26576,2.19236,1.39236,2.11927,2.65812,4.31162,1.26594,2.19267,1.44939,2.08675,2.71532,4.27942,1.267,2.19457,1.67129,1.96118,2.93832,4.15575,1.26791,2.19608,1.12638,2.27779,2.39429,4.47387s.42569,2.79041,2.61735,4.06594c2.16542,1.26026,2.26078.01834,4.76624.01834,2.50393,0,2.50393.50426,5.00787.50426,2.50517,0,2.50517-.35866,5.01035-.35866,2.50626,0,2.50626.56945,5.01253.56945s2.50626-.63216,5.01252-.63216,2.5063-.03486,5.0126-.03486c2.507,0,2.507.43755,5.0139.43755,2.5056,0,2.5056-.1215,5.01119-.1215,2.50777,0,2.50777-.08307,5.01554-.08307a20.47379,20.47379,0,0,1,4.98742.31317C182.1535,127.85755,182.48109,128.53862,184.65127,127.27849Z" transform="translate(-105.02236 -84.82274)"/></svg>