<svg id="Layer_1" data-name="Layer 1" xmlns="http://www.w3.org/2000/svg" viewBox="0 0 104.58418 46.29324"><defs><style>.cls-1,.cls-2{fill:none;}.cls-1{stroke:#81c784;stroke-linecap:round;stroke-linejoin:round;stroke-width:3px;}.cls-2{stroke:#616161;stroke-miterlimit:10;stroke-width:2px;}</style></defs><title>triangle-middle-03</title><polyline class="cls-1" points="1.895 4.092 3.02 3.443 4.921 5.922 8.975 3.581 7.944 8.751 14.439 5.001 7.521 11.726 19.649 4.724 8.873 14.394 26.326 4.317 10.216 18.142 32.217 5.439 14.888 19.291 42.367 3.427 13.822 23.872 48.312 3.96 17.068 26.294 55.556 4.072 16.906 29.529 63.267 2.762 15.643 34.151 68.032 3.905 20.008 34.751 75.525 2.699 19.263 37.565 81.729 1.5 21.809 40.144 82.926 4.858 24.84 40.988 91.424 2.546 28.549 41.309 95.017 2.934 31.424 43.235 103.084 1.862 40.457 42.48 99.685 8.285 45.986 43.617 92.276 16.892 55.89 41.701 95.16 19.029 57.4 43.404 93.161 22.758 61.615 44.793 88.547 29.244 68.446 43.708 81.048 36.432 75.715 42.281 81.675 38.84"/><path class="cls-2" d="M184.78,127.50024c2.18887-1.271.885-2.583,2.15054-4.775,1.2661-2.19295,1.64159-1.97616,2.90769-4.16912s.906-2.40085,2.1721-4.5938,1.09565-2.29141,2.36178-4.4844c1.26576-2.19236,1.5294-2.04015,2.79516-4.23251,1.26594-2.19266,1.535-2.03734,2.8009-4.23,1.267-2.19458,1.12794-2.27488,2.395-4.46946,1.2679-2.19607,1.32965-2.16043,2.59755-4.35651s3.51082-2.11762,2.35064-4.37247c-1.097-2.13217-2.2819-.2816-4.67975-.2816-2.3972,0-2.3972.437-4.79439.437-2.39768,0-2.39768.2255-4.79535.2255-2.39751,0-2.39751-.5102-4.795-.5102-2.3982,0-2.3982.31125-4.7964.31125-2.3976,0-2.3976.13181-4.7952.13181-2.39828,0-2.39828-.53441-4.79656-.53441-2.39864,0-2.39864.171-4.79729.171-2.39829,0-2.39829-.27253-4.79658-.27253-2.39594,0-2.39594.44169-4.79188.44169-2.3982,0-2.3982-.34214-4.79641-.34214-2.39674,0-2.39674-.31046-4.79349-.31046-2.39794,0-2.39794.50178-4.79588.50178-2.399,0-2.399-.41691-4.798-.41691s-2.399.13049-4.79795.13049-2.399.62679-4.798.62679c-2.39833,0-2.39833-.11127-4.79666-.11127-2.39866,0-2.39866-.00479-4.79732-.00479-2.40075,0-2.40075-.13141-4.80149-.13141-2.4024,0-2.4024-.2635-4.8048-.2635s-3.85209-2.06994-4.95814.0627c-1.16531,2.2469,1.191,2.40311,2.45657,4.59511,1.2661,2.193,1.1578,2.25549,2.4239,4.44844s1.72231,1.92956,2.98841,4.12251,1.51718,2.048,2.7833,4.241c1.26576,2.19236.54035,2.61118,1.80611,4.80354,1.26593,2.19266,1.20456,2.2281,2.4705,4.42076,1.267,2.19457,1.50173,2.05907,2.76877,4.25364,1.26791,2.19608,1.55763,2.02881,2.82554,4.22488s.36059,2.9644,2.55225,4.23993c2.16542,1.26027,2.38033-.15443,4.88579-.15443,2.50393,0,2.50393.67629,5.00787.67629,2.50517,0,2.50517-.212,5.01035-.212,2.50626,0,2.50626.3831,5.01253.3831s2.50626-.52965,5.01252-.52965,2.5063.3835,5.0126.3835c2.507,0,2.507.07443,5.0139.07443,2.5056,0,2.5056-.71181,5.01119-.71181,2.50777,0,2.50777.56838,5.01554.56838,2.50949,0,2.54308-.67575,5.00878-.209C182.24084,127.79621,182.60985,128.76036,184.78,127.50024Z" transform="translate(-105.22034 -84.3447)"/></svg>