<svg id="Layer_1" data-name="Layer 1" xmlns="http://www.w3.org/2000/svg" viewBox="0 0 103.54716 45.89499"><defs><style>.cls-1,.cls-2{fill:none;}.cls-1{stroke:#ffb74d;stroke-linecap:round;stroke-linejoin:round;stroke-width:3px;}.cls-2{stroke:#616161;stroke-miterlimit:10;stroke-width:2px;}</style></defs><title>triangle-middle-02</title><polyline class="cls-1" points="1.978 3.947 3.103 3.298 5.792 4.729 8.589 3.115 4.337 10.017 18.589 1.788 4.892 13.516 25.704 1.5 9.564 15.212 31.229 2.704 11.877 16.724 32.21 4.985 12.389 20.545 42.969 2.89 13.549 22.934 44.432 5.104 15.622 24.925 53.116 3.278 13.794 29.826 62.176 1.892 19.868 30.011 64.427 4.285 16.643 35.566 72.068 3.566 23.354 36.046 81.547 2.449 20.96 41.217 88.948 1.964 22.757 43.71 95.345 1.801 32.449 42.157 96.565 5.14 35.888 43.499 98.271 7.481 46.086 40.738 97.884 10.833 49.478 43.103 95.63 16.458 58.719 41.081 92.826 21.389 62.48 43.013 86.204 29.316 64.104 44.395 83.404 33.253 70.987 44.392 84.507 36.586 78.194 42.607 82.022 40.397"/><path class="cls-2" d="M184.46472,126.95723c2.18886-1.271,1.46826-1.88526,2.73381-4.07726,1.2661-2.193.83995-2.439,2.106-4.632s1.80229-1.88339,3.06839-4.07634.70684-2.51589,1.973-4.70887c1.26576-2.19236,1.82916-1.86708,3.09492-4.05944,1.26594-2.19267,1.15824-2.25485,2.42418-4.44751,1.267-2.19457.92215-2.39369,2.18919-4.58826,1.26791-2.19608,1.609-1.99916,2.87689-4.19524s3.59928-2.13082,2.4391-4.38567c-1.097-2.13216-2.34076-.2926-4.73861-.2926-2.3972,0-2.3972.73537-4.79439.73537-2.39768,0-2.39768-.84948-4.79535-.84948-2.39751,0-2.39751.74917-4.795.74917-2.3982,0-2.3982.00091-4.7964.00091-2.3976,0-2.3976-.84512-4.7952-.84512-2.39828,0-2.39828.899-4.79656.899-2.39864,0-2.39864-.888-4.79729-.888-2.39829,0-2.39829.49162-4.79658.49162-2.39594,0-2.39594-.42478-4.79188-.42478-2.3982,0-2.3982.087-4.79641.087-2.39674,0-2.39674-.05792-4.79349-.05792-2.39794,0-2.39794.74538-4.79588.74538-2.399,0-2.399-.30506-4.798-.30506s-2.399-.11307-4.79795-.11307-2.399.20542-4.798.20542c-2.39833,0-2.39833.1182-4.79666.1182-2.39866,0-2.39866-.26539-4.79732-.26539-2.40075,0-2.40075-.49626-4.80149-.49626-2.4024,0-2.4024.71877-4.8048.71877s-3.955-2.508-5.06106-.3754c-1.16531,2.2469,1.41956,2.384,2.68511,4.576,1.26611,2.193,1.62835,1.98381,2.89446,4.17677s1.22955,2.21405,2.49565,4.407.82646,2.44683,2.09259,4.63982c1.26576,2.19236,1.55691,2.02426,2.82267,4.21662,1.26594,2.19266,1.39957,2.11551,2.6655,4.30818,1.267,2.19457,1.19771,2.23459,2.46475,4.42916,1.26791,2.19608,1.28041,2.18886,2.54832,4.38494s.16223,3.25612,2.35389,4.53165c2.16542,1.26026,2.53566.06382,5.04112.06382,2.50393,0,2.50393.08319,5.00787.08319,2.50517,0,2.50517-.62188,5.01035-.62188,2.50626,0,2.50626.84952,5.01253.84952s2.50626-.66842,5.01252-.66842,2.5063-.17121,5.0126-.17121c2.507,0,2.507-.0039,5.0139-.0039,2.5056,0,2.5056.19937,5.01119.19937,2.50777,0,2.50777.55858,5.01554.55858,2.50949,0,2.49838-.41133,4.988-.09625C182.06312,127.80152,182.29455,128.21735,184.46472,126.95723Z" transform="translate(-105.13747 -84.48935)"/></svg>