<svg id="Layer_1" data-name="Layer 1" xmlns="http://www.w3.org/2000/svg" viewBox="0 0 51.26326 42.79665"><defs><style>.cls-1,.cls-2{fill:none;}.cls-1{stroke:#4db6ac;stroke-linecap:round;stroke-linejoin:round;stroke-width:3px;}.cls-2{stroke:#616161;stroke-miterlimit:10;stroke-width:2px;}</style></defs><title>triangle-bottom-01</title><polyline class="cls-1" points="1.5 4.673 2.909 3.86 3.479 6.592 7.734 4.135 7.241 8.535 19.426 1.5 12.027 9.718 26.249 1.507 11.57 14.11 30.412 3.231 12.498 17.741 38.394 2.79 17.938 18.757 46.864 2.057 18.113 21.105 47.783 3.975 18.959 23.773 45.908 8.214 15.832 29.376 41.428 14.598 20.059 31.504 37.975 21.16 21.627 34.359 36.366 25.849 22.558 38.182 29.13 34.388 25.996 40.479 26.09 40.425"/><path class="cls-2" d="M180.18662,135.3237c-1.262-2.194-2.86317.03416-5.39427.03416-2.5322,0-2.5322-.03967-5.06441-.03967s-2.53219.43488-5.06439.43488-2.53224-.114-5.06448-.114c-2.5329,0-2.5329.23484-5.06579.23484-2.53153,0-2.53153.08176-5.06305.08176-2.53372,0-2.53372-.10364-5.06745-.10364-2.53546,0-2.53546.08676-5.07093.08676s-3.46335-2.423-4.73435-.22914c-1.26882,2.19011.542,2.22046,1.8075,4.41246,1.2661,2.19295,1.95775,1.79363,3.22385,3.98658s1.39227,2.1201,2.65837,4.313,1.23588,2.21044,2.502,4.40343c1.26576,2.19235.47617,2.64822,1.74193,4.84058,1.26593,2.19266,1.38854,2.12187,2.65448,4.31453,1.267,2.19457,1.10687,2.287,2.3739,4.48161,1.2679,2.19608,1.27256,2.19339,2.54046,4.38947s.422,4.10028,2.95782,4.10436c2.5311.00408.90795-2.35424,2.1735-4.54624,1.2661-2.19295,1.2563-2.19861,2.5224-4.39156s1.24244-2.2066,2.50854-4.39955,1.4035-2.11367,2.66962-4.30665c1.26576-2.19236,1.319-2.16164,2.58472-4.354,1.26594-2.19266,1.79519-1.88709,3.06113-4.07975,1.267-2.19457,1.327-2.16,2.594-4.35454,1.26791-2.19608.668-2.51445,2.44644-4.322C179.70211,138.08335,181.451,137.52181,180.18662,135.3237Z" transform="translate(-130.35028 -133.15912)"/></svg>