<svg id="Layer_1" data-name="Layer 1" xmlns="http://www.w3.org/2000/svg" viewBox="0 0 51.26915 43.87172"><defs><style>.cls-1,.cls-2{fill:none;}.cls-1{stroke:#81c784;stroke-linecap:round;stroke-linejoin:round;stroke-width:3px;}.cls-2{stroke:#616161;stroke-miterlimit:10;stroke-width:2px;}</style></defs><title>triangle-bottom-03</title><polyline class="cls-1" points="1.5 4.948 6.289 2.183 4.268 7.171 14.091 1.5 10.255 6.354 13.683 4.375 10.384 9.197 20.502 3.356 11.439 12.112 25.758 3.846 14.705 13.431 33.038 2.846 15.036 16.083 37.194 3.29 17.307 19.364 44.289 3.786 14.74 25.348 49.545 5.253 19.048 25.923 43.269 11.939 20.069 27.93 40.73 16.001 19.07 30.937 38.717 19.594 20.212 33.49 36.016 24.365 22.7 35.014 34.956 27.938 25.857 36.921 34.536 31.91 23.012 42.372 24.858 41.306"/><path class="cls-2" d="M180.24408,135.29065c-1.262-2.194-2.92063.02537-5.45173.02537-2.5322,0-2.5322.40074-5.06441.40074s-2.53219-.236-5.06439-.236-2.53224.07663-5.06448.07663c-2.5329,0-2.5329-.00131-5.06579-.00131-2.53153,0-2.53153-.31431-5.06305-.31431-2.53372,0-2.53372-.15785-5.06745-.15785-2.53546,0-2.53546.13728-5.07093.13728s-3.80873-1.90545-5.07973.28844c-1.26882,2.19011,1.4694,2.08449,2.73495,4.27649,1.2661,2.19295,1.14161,2.26482,2.40771,4.45777s1.20027,2.231,2.46636,4.42391,1.26792,2.19194,2.534,4.38493c1.26576,2.19235,1.04623,2.3191,2.312,4.51145,1.26594,2.19267,1.78156,1.895,3.04749,4.08763,1.267,2.19457,1.03947,2.326,2.30651,4.52052,1.2679,2.19607,1.15661,2.26033,2.42451,4.45641s.03636,4.298,2.57217,4.30211c2.5311.00407,1.05632-2.24363,2.32187-4.43563,1.2661-2.193,1.52326-2.04448,2.78936-4.23743s1.44424-2.09009,2.71033-4.283.71572-2.51076,1.98184-4.70374c1.26576-2.19236,1.89138-1.83116,3.15714-4.02352,1.26593-2.19266.70689-2.51542,1.97282-4.70808,1.267-2.19457,1.94422-1.80359,3.21126-3.99816,1.2679-2.19608.38672-2.77847,2.16855-4.58274C179.47974,137.82321,181.50845,137.48876,180.24408,135.29065Z" transform="translate(-130.36571 -132.87542)"/></svg>